<svg width="178" height="32" viewBox="0 0 178 32" fill="none" xmlns="http://www.w3.org/2000/svg">
  <g clip-path="url(#clip0_51_12)">
    <path d="M154.244 31.9999H128.914C125.605 31.9999 122.922 29.3169 122.922 26.0073V5.99256C122.922 2.68302 125.605 0 128.914 0H154.244V5.41815H128.885C128.584 5.41815 128.34 5.66193 128.34 5.96287V25.9724C128.34 26.3091 128.613 26.582 128.949 26.582H154.244V31.9999Z" fill="white"/>
    <path d="M116.316 0H110.898V31.9999H116.316V0Z" fill="white"/>
    <path d="M62.3084 0V26.037C62.3084 26.3374 62.064 26.5818 61.7636 26.5818H42.1972C41.8967 26.5818 41.6523 26.3374 41.6523 26.037V0H36.2344V26.0073C36.2344 29.3116 38.9226 31.9999 42.2269 31.9999H61.7338C65.0381 31.9999 67.7263 29.3116 67.7263 26.0073V0H62.3084Z" fill="white"/>
    <path d="M177.946 26.582H159.66V32H177.946V26.582Z" fill="white"/>
    <path d="M99.8211 0L89.2267 23.4588L78.6324 0H72.6875L86.3474 30.2468C86.8285 31.3118 87.8945 31.9999 89.0629 31.9999H89.3905C90.5589 31.9999 91.625 31.3118 92.1063 30.2464L105.766 0H99.8211Z" fill="white"/>
    <path d="M5.96266 5.4238H31.3225V0H5.99256C2.68827 0 0 2.68827 0 5.99256V26.0073C0 29.3116 2.68827 31.9999 5.99256 31.9999H31.3225V26.582H5.96266C5.66233 26.582 5.41794 26.3376 5.41794 26.037V18.6242H25.5658V13.3757H5.41794V5.96853C5.41794 5.6682 5.66233 5.4238 5.96266 5.4238Z" fill="white"/>
  </g>
  <defs>
    <clipPath id="clip0_51_12">
      <rect width="177.946" height="32" fill="white"/>
    </clipPath>
  </defs>
</svg>
